<svg width="125" height="40" viewBox="0 0 125 40" fill="none" xmlns="http://www.w3.org/2000/svg">
<path d="M25.9406 18.2037V7.52103C25.9406 3.40127 22.5465 0.0479736 18.3766 0.0479736H7.564C3.3941 0.0479736 0 3.40127 0 7.52103V18.2037C0 22.0839 2.95772 25.2456 6.7882 25.6288L14.7401 19.2576H6.15787V16.1917L14.6431 9.3414H6.49728V6.41924H19.7343V9.48511L11.249 16.3354H19.7343V19.4013L11.9278 25.6767H18.3766C22.5465 25.6767 25.9406 22.3234 25.9406 18.2037Z" fill="#B498EB"/>
<path d="M34.4258 0H39.2745C41.4079 0 43.008 1.2934 43.008 3.44909C43.0565 5.60478 41.4079 6.94611 39.2745 6.8982H35.9289V11.497H34.4258V0ZM39.0321 5.60478C40.5837 5.60478 41.5049 4.88622 41.5049 3.497C41.5049 2.10778 40.5837 1.38922 39.0321 1.38922H35.9289V5.60478H39.0321Z" fill="#231F20"/>
<path d="M48.0022 3.16169C50.1841 3.11379 51.9781 4.93416 51.9296 7.42518C51.9781 9.91619 50.1841 11.7366 48.0022 11.6886C45.8202 11.7366 44.0262 9.91619 44.0747 7.42518C44.0747 4.93416 45.8202 3.11379 48.0022 3.16169ZM48.0991 10.5389C49.5053 10.5389 50.572 9.34134 50.572 7.42518C50.572 5.50901 49.5053 4.3114 48.0991 4.3114H47.9537C46.5475 4.3114 45.4808 5.50901 45.4808 7.42518C45.4808 9.34134 46.4991 10.5389 47.9537 10.5389H48.0991Z" fill="#231F20"/>
<path d="M57.4574 3.16167C59.2999 3.16167 60.6576 4.26346 60.803 6.03592H59.3969C59.2999 5.55688 59.106 5.12574 58.7666 4.83831C58.4272 4.50299 58.0393 4.35927 57.5059 4.35927H57.3604C55.7604 4.35927 54.8876 5.7964 54.8876 7.47305C54.8876 9.14969 55.7119 10.5868 57.3604 10.5868H57.5059C57.9908 10.5868 58.4272 10.4431 58.7666 10.1078C59.106 9.77245 59.2999 9.38921 59.3969 8.91017H60.803C60.6091 10.6826 59.2999 11.7844 57.4574 11.7844C54.9846 11.8323 53.4815 9.91616 53.5299 7.52095C53.4815 4.98203 54.9846 3.11376 57.4574 3.16167Z" fill="#231F20"/>
<path d="M66.2821 3.16167C68.1246 3.16167 69.4823 4.26346 69.6277 6.03592H68.2216C68.1246 5.55688 67.9307 5.12574 67.5913 4.83831C67.2519 4.50299 66.864 4.35927 66.3306 4.35927H66.1851C64.5851 4.35927 63.7123 5.7964 63.7123 7.47305C63.7123 9.14969 64.5366 10.5868 66.1851 10.5868H66.3306C66.8155 10.5868 67.2519 10.4431 67.5913 10.1078C67.9307 9.77245 68.1246 9.38921 68.2216 8.91017H69.6277C69.4338 10.6826 68.1246 11.7844 66.2821 11.7844C63.8093 11.8323 62.3062 9.91616 62.3547 7.52095C62.3062 4.98203 63.8093 3.11376 66.2821 3.16167Z" fill="#231F20"/>
<path d="M78.9858 3.30548V11.545H77.5796V4.83841L73.5552 11.545H71.6157V3.30548H73.0218V10.1079L77.1433 3.30548" fill="#231F20"/>
<path d="M88.9257 3.30539V11.5449H87.5196V4.83831L83.4952 11.5449H81.5557V3.30539H82.9618V10.1078L87.0832 3.30539H88.9257ZM83.98 0C84.077 0.862276 84.4649 1.2455 85.1922 1.2455C85.968 1.2455 86.3559 0.814372 86.4044 0H87.6166C87.6166 1.48503 86.6953 2.15569 85.1437 2.15569C83.5921 2.15569 82.7194 1.48503 82.6709 0H83.98Z" fill="#231F20"/>
<path d="M94.938 3.16167C96.829 3.16167 98.1382 4.26346 98.2836 6.03592H96.8775C96.7805 5.55688 96.5866 5.12574 96.2472 4.83831C95.9078 4.50299 95.5199 4.35927 94.9865 4.35927H94.8411C93.241 4.35927 92.3682 5.7964 92.3682 7.47305C92.3682 9.14969 93.241 10.5868 94.8411 10.5868H94.9865C95.4714 10.5868 95.9078 10.4431 96.1987 10.1078C96.5381 9.77245 96.7321 9.38921 96.829 8.91017H98.2352C98.0412 10.6826 96.7321 11.7844 94.8895 11.7844C92.4167 11.8323 90.9136 9.91616 90.9621 7.52095C90.9621 4.98203 92.4652 3.11376 94.938 3.16167Z" fill="#231F20"/>
<path d="M103.181 7.56895L101.726 8.95817V11.545H100.32V3.30548H101.726V7.37734L105.799 3.30548H107.593L104.199 6.56296L107.738 11.545H106.041" fill="#231F20"/>
<path d="M112.199 3.16169C114.381 3.11379 116.175 4.93416 116.127 7.42518C116.175 9.91619 114.381 11.7366 112.199 11.6886C110.017 11.7366 108.223 9.91619 108.272 7.42518C108.223 4.93416 110.017 3.11379 112.199 3.16169ZM112.296 10.5389C113.703 10.5389 114.769 9.34134 114.769 7.42518C114.769 5.50901 113.751 4.3114 112.296 4.3114H112.151C110.745 4.3114 109.727 5.50901 109.727 7.42518C109.727 9.34134 110.745 10.5389 112.151 10.5389H112.296Z" fill="#231F20"/>
<path d="M121.509 3.16167C123.594 3.16167 125 4.69461 125 6.8024V7.61677H119.133C119.181 9.53294 120.394 10.5389 121.557 10.5389H121.654C122.624 10.5389 123.351 10.0599 123.545 9.1497H124.951C124.661 10.7784 123.254 11.7365 121.509 11.7365C119.424 11.7844 117.63 10.2036 117.63 7.42516C117.678 4.64672 119.521 3.11377 121.509 3.16167ZM123.594 6.51497C123.545 5.07784 122.673 4.35928 121.606 4.35928H121.46C120.491 4.35928 119.472 4.98203 119.181 6.51497H123.594Z" fill="#231F20"/>
<path d="M37.5778 17.2455C39.7598 17.1976 41.5538 19.0179 41.5053 21.509C41.5538 24 39.7598 25.8203 37.5778 25.7724C35.3959 25.8203 33.6019 24 33.6504 21.509C33.6019 19.0658 35.3959 17.2455 37.5778 17.2455ZM37.6748 24.6706C39.0809 24.6706 40.1477 23.473 40.1477 21.5569C40.1477 19.6407 39.1294 18.4431 37.6748 18.4431H37.5293C36.1232 18.4431 35.0565 19.6407 35.0565 21.5569C35.0565 23.473 36.1232 24.6706 37.5293 24.6706H37.6748Z" fill="#231F20"/>
<path d="M43.5416 17.8683C43.6871 17.1018 43.9295 16.4791 44.3174 16C44.8992 15.2815 45.869 14.8982 47.2266 14.8982H49.0691C49.651 14.8982 49.8449 14.7066 49.8449 14.3234V14.0359H51.2026V14.515C51.2026 15.6647 50.7177 16.1437 49.3116 16.1437H47.2266C45.3841 16.1437 44.7053 17.1018 44.6083 19.3054C45.1417 18.491 46.3538 17.7725 47.6145 17.7725C49.651 17.7246 51.2995 19.3054 51.2995 21.7006C51.348 24.0479 49.6995 25.9162 47.4206 25.9162C44.8507 25.9162 43.4931 24.0479 43.4931 20.9821C43.3476 19.6407 43.3961 18.6348 43.5416 17.8683ZM47.3721 24.6707C48.8267 24.7186 49.7964 23.3294 49.748 21.6527C49.748 19.9761 48.7782 18.8264 47.3721 18.8264H47.2751C45.869 18.8264 44.8023 19.9761 44.8023 21.5569C44.8023 23.3773 45.772 24.6707 47.2751 24.6707H47.3721Z" fill="#231F20"/>
<path d="M66.0879 24.527V27.8803H64.7302V25.6767H53.2388V17.4372H54.6449V24.527H58.233V17.4372H59.6391V24.527H63.2271V17.4372H64.6333V24.527" fill="#231F20"/>
<path d="M70.9369 17.2455C73.0218 17.1976 74.4279 18.7784 74.4279 20.8862V21.7006H68.561C68.6095 23.6168 69.8217 24.6228 70.9854 24.6228H71.1308C72.1006 24.6228 72.8279 24.1437 73.0218 23.2335H74.4279C74.137 24.8623 72.7309 25.8204 70.9854 25.8204C68.9004 25.8683 67.1064 24.2874 67.1064 21.509C67.0579 18.7784 68.9489 17.2455 70.9369 17.2455ZM72.9733 20.5988C72.9248 19.1617 72.0521 18.4431 70.9854 18.4431H70.8399C69.8701 18.4431 68.8519 19.0659 68.6095 20.5988H72.9733Z" fill="#231F20"/>
<path d="M79.9555 17.2455C81.798 17.2455 83.1556 18.3473 83.3011 20.1198H81.895C81.798 19.6408 81.604 19.2096 81.2646 18.9222C80.9252 18.5869 80.5373 18.4431 80.0039 18.4431H79.8585C78.2584 18.4431 77.3856 19.8803 77.3856 21.5569C77.3856 23.2336 78.2099 24.6707 79.8585 24.6707H80.0039C80.4888 24.6707 80.9252 24.527 81.2646 24.1917C81.604 23.8563 81.798 23.4731 81.895 22.994H83.3011C83.1071 24.7665 81.798 25.8683 79.9555 25.8683C77.4826 25.9162 75.9795 24 76.028 21.6048C75.9795 19.1138 77.4826 17.2455 79.9555 17.2455Z" fill="#231F20"/>
<path d="M91.156 18.5869H88.3922V25.6767H86.9376V18.5869H84.1738V17.4372H91.156" fill="#231F20"/>
<path d="M92.6592 17.4372H96.5866C98.2837 17.4372 99.2534 18.3474 99.2534 19.545C99.2534 20.551 98.7201 21.2216 97.7503 21.5091C98.6231 21.557 99.4959 22.2755 99.4959 23.3773C99.4959 24.6707 98.3322 25.7246 96.7321 25.7246H92.6592V17.4372ZM96.3927 20.9342C97.2655 20.9342 97.7988 20.4552 97.7988 19.6408C97.7988 18.8743 97.2655 18.4911 96.2472 18.4911H94.1138V20.9342H96.3927ZM96.3927 24.5749C97.5079 24.5749 98.0413 24.0959 98.0413 23.2336C98.0413 22.515 97.5079 22.036 96.4412 22.036H94.1138V24.5749H96.3927Z" fill="#231F20"/>
<path d="M104.975 17.2455C107.157 17.1976 108.951 19.0179 108.902 21.509C108.951 24 107.157 25.8203 104.975 25.7724C102.793 25.8203 100.999 24 101.047 21.509C100.999 19.0658 102.793 17.2455 104.975 17.2455ZM105.023 24.6706C106.429 24.6706 107.448 23.473 107.448 21.5569C107.448 19.6407 106.429 18.4431 105.023 18.4431H104.878C103.472 18.4431 102.405 19.6407 102.405 21.5569C102.405 23.473 103.472 24.6706 104.878 24.6706H105.023Z" fill="#231F20"/>
<path d="M42.2324 34.8263C42.6203 35.2575 42.8143 35.7844 42.8143 36.503C42.8143 38.6587 41.0202 40 38.3535 40C35.3957 40 33.6987 38.5629 33.5532 36.0719H35.7836C35.9776 37.4132 36.8019 38.0359 38.4019 38.0359C39.8566 38.0359 40.5839 37.509 40.5839 36.503C40.5839 35.5449 39.905 35.018 38.5959 35.018H36.9958V32.9581H38.4989C39.7596 32.9581 40.4869 32.3832 40.4869 31.4251C40.4869 30.5629 39.7596 30.0359 38.4019 30.0359C37.6261 30.0359 37.0443 30.2275 36.6564 30.6108C36.2685 30.994 36.0261 31.4731 35.9291 32.0958H33.6502C33.6987 31.4731 33.8441 30.8503 34.1836 30.2754C34.523 29.6527 35.0078 29.1257 35.7351 28.7425C36.414 28.3114 37.2867 28.1198 38.3535 28.1198C41.1657 28.1198 42.7173 29.4611 42.7173 31.473C42.7173 32.6227 41.99 33.5808 40.6808 33.9641C41.2627 34.1078 41.796 34.3952 42.2324 34.8263Z" fill="#231F20"/>
<path d="M44.7051 31.569H46.887V34.6827H50.0872V31.569H52.2691V39.7606H50.0872V36.4073H46.887V39.7606H44.7051" fill="#231F20"/>
<path d="M54.0147 35.6886C53.9662 32.9101 55.7117 31.3772 57.6027 31.4251C58.8634 31.4251 59.7361 32 60.124 32.7185V31.5688H62.306V39.8083H60.124V38.6586C59.6877 39.3772 58.8634 39.9521 57.6027 39.9521C55.9057 39.9521 54.0147 38.4191 54.0147 35.6886ZM58.233 38.2275C59.2998 38.2275 60.124 37.2694 60.124 35.6886C60.124 34.1077 59.2998 33.1497 58.233 33.1497H58.0876C57.0693 33.1018 56.1966 34.2515 56.1966 35.6886C56.1966 37.1257 57.0693 38.2754 58.0876 38.2754H58.233V38.2275Z" fill="#231F20"/>
<path d="M64.5366 31.569H66.6701V34.6827H69.9187V31.569H72.0521V39.7606H69.9187V36.4073H66.6701V39.7606H64.5366" fill="#231F20"/>
<path d="M82.4281 31.569V39.7606H80.2461V33.8684L77.1915 39.7606H74.2822V31.569H76.4641V37.4133L79.5188 31.569" fill="#231F20"/>
<path d="M84.174 35.6887C84.1255 33.2456 85.6771 31.3773 88.1499 31.4252C90.5743 31.3773 91.9804 33.1976 91.9319 35.5929C91.9319 35.7366 91.9319 36.024 91.8834 36.3593H86.2589C86.3559 37.4611 87.2286 38.2276 88.1499 38.2276H88.2954C89.0712 38.2276 89.6045 37.7964 89.75 37.1737H91.8834C91.4955 38.8024 90.1379 39.9521 88.1014 39.9521C86.065 39.9521 84.1255 38.2755 84.174 35.6887ZM89.847 34.6827C89.7985 33.7246 89.0227 33.1018 88.1499 33.1018H88.0044C87.0832 33.1018 86.3559 33.7246 86.3074 34.6827H89.847Z" fill="#231F20"/>
</svg>
