<svg width="91" height="40" viewBox="0 0 91 40" fill="none" xmlns="http://www.w3.org/2000/svg">
<path d="M0.283203 15H1.42578C2.51953 15 3.32031 14.7461 3.81836 14.2285C4.32617 13.7109 4.62891 12.9688 4.7168 11.9922C4.77539 11.3379 4.83398 10.2051 4.88281 8.59375C4.94141 6.98242 4.9707 5.6543 4.9707 4.60938V2.63672H10.8691V15H12.6758V0.996094H3.24219V4.63867C3.24219 5.89844 3.22266 7.2168 3.17383 8.60352C3.13477 9.98047 3.08594 10.9863 3.02734 11.6016C2.91016 12.8125 2.46094 13.3008 1.35742 13.3398H0.283203V15ZM22.6953 5L17.7637 13.2422V5H16.0645V15H18.3984L23.2227 6.83594V15H24.9219V5H22.6953ZM34.0723 5H27.998V15H29.6973V6.39648H34.0723V5ZM43.3301 15C43.2617 14.5312 43.2324 13.7988 43.2324 12.8027V8.60352C43.252 6.54297 41.7871 4.77539 39.2383 4.80469C37.0215 4.80469 35.3809 6.06445 35.2637 7.87109H36.9629C37.0215 7.34375 37.2559 6.94336 37.666 6.66016C38.0859 6.37695 38.584 6.23047 39.1699 6.23047H39.3066C40.6836 6.23047 41.5234 7.10938 41.5234 8.60352V8.95508L38.6328 9.16992C37.6465 9.25781 36.8066 9.53125 36.1035 10.0098C35.4102 10.4785 35.0586 11.2207 35.0586 12.2363C35.0195 13.9062 36.5039 15.2246 38.3105 15.1953C39.9121 15.1953 41.2207 14.3262 41.6309 13.3984C41.6309 14.1504 41.6602 14.6777 41.7285 15H43.3301ZM41.5234 11.3965C41.582 12.6367 39.9316 13.7988 38.6816 13.7695H38.5059C37.5098 13.7695 36.7578 13.0664 36.7578 12.1582C36.7578 11.2109 37.6074 10.5762 38.8965 10.4688L41.5234 10.2734V11.3965ZM0.3125 35H1.5625C2.80273 35 3.7207 34.707 4.29688 34.1309C4.87305 33.5547 5.20508 32.8027 5.29297 31.8555C5.36133 31.1523 5.42969 30.0586 5.47852 28.5742C5.52734 27.0898 5.54688 25.8203 5.54688 24.7656V23.1445H10.7227V35H13.125V20.9961H3.24219V24.7461C3.24219 25.8691 3.22266 27.0117 3.19336 28.1641C3.1543 29.3164 3.10547 30.2148 3.04688 30.8594C2.92969 32.373 2.42188 32.7441 1.29883 32.7832L0.3125 32.793V35ZM20.2832 35.1953C22.5684 35.1953 24.2188 33.916 24.6484 31.9238H22.3633C22.168 32.7734 21.4258 33.3105 20.4395 33.3105H20.2832C19.1309 33.3398 17.8613 32.2852 17.793 30.5957H24.6582C24.668 30.1562 24.6777 29.8145 24.6777 29.5898C24.6973 26.8164 23.0273 24.7754 20.2539 24.8047C17.5488 24.7656 15.498 26.875 15.5371 29.9902C15.498 33.252 17.7539 35.2246 20.2832 35.1953ZM17.8418 28.8086C18.0371 27.4023 19.0234 26.6895 20.1172 26.6895H20.2832C21.4062 26.6895 22.3633 27.4316 22.4219 28.8086H17.8418ZM33.6133 35H36.3477L32.2363 28.9648L36.1426 25H33.3105L29.2773 29.3848V25H26.9727V35H29.2773V31.9629L30.625 30.5957L33.6133 35ZM45.625 25H36.7773V26.8652H40.0488V35H42.3438V26.8652H45.625V25ZM51.3867 35.1953C54.209 35.2344 56.3477 32.9883 56.3086 30C56.3477 27.0117 54.209 24.7656 51.3867 24.8047C48.5742 24.7656 46.4355 27.0117 46.4746 30C46.4355 32.9883 48.5742 35.2344 51.3867 35.1953ZM51.3086 33.3105C49.8047 33.3105 48.7891 32.0801 48.7891 30C48.7891 27.9199 49.8047 26.6895 51.3086 26.6895H51.4746C52.9785 26.6895 53.9941 27.9199 53.9941 30C53.9941 32.0801 52.9785 33.3105 51.4746 33.3105H51.3086ZM58.5352 39.0039H60.8398V33.6523C61.2891 34.4629 62.4609 35.1953 63.8086 35.1953C66.4746 35.2441 68.3105 32.9297 68.2812 30C68.3105 27.0508 66.5625 24.7656 63.8965 24.8047C62.5391 24.8047 61.2891 25.5469 60.8398 26.3477V25H58.5352V39.0039ZM63.3496 33.3105C62.041 33.3398 60.8105 32.0312 60.8398 30C60.8105 27.9688 62.041 26.6699 63.3496 26.6895H63.5059C64.9121 26.6895 65.9766 27.9199 65.9766 30C65.9766 32.0801 64.9121 33.3105 63.5059 33.3105H63.3496ZM74.8242 35.1953C77.6465 35.2344 79.7852 32.9883 79.7461 30C79.7852 27.0117 77.6465 24.7656 74.8242 24.8047C72.0117 24.7656 69.873 27.0117 69.9121 30C69.873 32.9883 72.0117 35.2344 74.8242 35.1953ZM74.7461 33.3105C73.2422 33.3105 72.2266 32.0801 72.2266 30C72.2266 27.9199 73.2422 26.6895 74.7461 26.6895H74.9121C76.416 26.6895 77.4316 27.9199 77.4316 30C77.4316 32.0801 76.416 33.3105 74.9121 33.3105H74.7461ZM81.9727 35H86.9727C89.1016 35 90.4297 33.7793 90.4297 32.1582C90.459 30.8203 89.248 29.9707 88.2617 29.9121C89.4434 29.5996 90.2637 28.75 90.2637 27.5879C90.2637 26.123 89.0332 25 86.8262 25H81.9727V35ZM84.2969 29.0918V26.6504H86.4453C87.4316 26.6504 87.9785 27.0215 87.9785 27.793C87.9785 28.6035 87.4121 29.0918 86.4453 29.0918H84.2969ZM84.2969 33.3496V30.8105H86.5234C87.5879 30.8105 88.125 31.25 88.125 32.0312C88.125 32.8906 87.5977 33.3496 86.5137 33.3496H84.2969Z" fill="black"/>
</svg>
