<svg width="135" height="36" viewBox="0 0 135 36" fill="none" xmlns="http://www.w3.org/2000/svg">
<g clip-path="url(#clip0)">
<path d="M23.8311 21.994C24.5958 21.8853 25.2661 21.0872 25.688 19.9085C25.0782 19.772 24.4559 19.6987 23.8311 19.6899V21.994Z" fill="black"/>
<path d="M25.0525 21.8067C25.0978 21.7936 25.1428 21.7804 25.1875 21.7659C25.2252 21.7538 25.2623 21.7407 25.2995 21.7277C25.3435 21.7125 25.3873 21.6969 25.4309 21.6803C25.4681 21.6662 25.5049 21.6512 25.5418 21.6361C25.5844 21.6183 25.6269 21.6005 25.669 21.5826C25.7057 21.5664 25.7422 21.5495 25.7787 21.5325C25.82 21.513 25.8611 21.4932 25.9018 21.4726C25.9376 21.4544 25.9733 21.4358 26.0091 21.4167C26.0491 21.3952 26.0889 21.3733 26.1284 21.3508C26.1642 21.3305 26.1987 21.3102 26.2335 21.2893C26.2723 21.2654 26.3108 21.2416 26.3491 21.2178C26.3834 21.196 26.4176 21.1738 26.4514 21.151C26.4891 21.1256 26.5263 21.0991 26.5633 21.0727C26.5965 21.0489 26.6296 21.0251 26.6621 21.0012C26.6978 20.9736 26.7345 20.9451 26.7704 20.9165C26.8022 20.8911 26.834 20.8659 26.8653 20.8398C26.901 20.8101 26.9352 20.7794 26.9698 20.7487C27.0002 20.7217 27.0308 20.695 27.0604 20.6673C27.0945 20.6355 27.1278 20.6025 27.161 20.5698C27.1898 20.5413 27.219 20.5133 27.2472 20.4842C27.2524 20.4788 27.2574 20.4729 27.2628 20.4673C26.873 20.266 26.4624 20.108 26.0382 19.9961C25.8176 20.6996 25.425 21.3372 24.896 21.8508C24.9105 21.8471 24.925 21.844 24.9395 21.8403C24.9777 21.8295 25.0152 21.8177 25.0525 21.8067Z" fill="black"/>
<path d="M28.6522 17.1829H26.5093C26.5012 18.0196 26.3798 18.8513 26.1484 19.6554C26.6202 19.7814 27.0755 19.9626 27.5048 20.1951C28.2097 19.3455 28.6132 18.2862 28.6522 17.1829Z" fill="black"/>
<path d="M23.8311 16.8254H26.152C26.143 16.0183 26.0246 15.2161 25.8002 14.4408C25.1539 14.5882 24.4938 14.6669 23.8311 14.6756V16.8254Z" fill="black"/>
<path d="M23.8311 12.0142V14.3182C24.4559 14.3094 25.0782 14.2362 25.688 14.0996C25.2661 12.9209 24.5958 12.1228 23.8311 12.0142Z" fill="black"/>
<path d="M23.8311 19.3326C24.4938 19.3414 25.1539 19.4202 25.8002 19.5675C26.0246 18.7922 26.143 17.99 26.152 17.1829H23.8311V19.3326Z" fill="black"/>
<path d="M27.5048 13.8132C27.0755 14.0458 26.6202 14.227 26.1484 14.353C26.3798 15.1571 26.5012 15.9888 26.5093 16.8255H28.6522C28.6132 15.7222 28.2096 14.6629 27.5048 13.8132Z" fill="black"/>
<path d="M27.2637 13.5419C27.2585 13.5365 27.2535 13.5308 27.2484 13.5253C27.2201 13.4961 27.1908 13.468 27.162 13.4397C27.1288 13.407 27.0957 13.3739 27.0615 13.3421C27.0319 13.3145 27.0013 13.2885 26.9709 13.261C26.9363 13.2303 26.9016 13.1993 26.866 13.1696C26.8352 13.1435 26.8035 13.1186 26.7721 13.0935C26.7363 13.0645 26.6996 13.0357 26.6628 13.0081C26.6305 12.9837 26.5978 12.9602 26.5649 12.9366C26.5275 12.9097 26.49 12.8829 26.452 12.8574C26.4185 12.8349 26.3846 12.8129 26.3507 12.7913C26.312 12.7664 26.2734 12.7421 26.2341 12.7185C26.1996 12.6978 26.1648 12.6774 26.1299 12.6576C26.0899 12.6348 26.0499 12.6126 26.0094 12.5909C25.9737 12.5731 25.938 12.5536 25.9022 12.5357C25.8611 12.5149 25.8196 12.495 25.7771 12.4753C25.7414 12.4583 25.7051 12.4417 25.6682 12.4256C25.6259 12.4068 25.5832 12.3899 25.5405 12.372C25.5037 12.357 25.467 12.3422 25.4298 12.328C25.3865 12.3114 25.3425 12.2959 25.2985 12.2807C25.2613 12.2676 25.2241 12.2546 25.1864 12.2424C25.1418 12.2279 25.0971 12.2148 25.0512 12.2015C25.014 12.1906 24.9767 12.1795 24.9391 12.1695C24.9247 12.1656 24.91 12.1626 24.8955 12.1588C25.4245 12.6725 25.817 13.3099 26.0377 14.0135C26.4624 13.9017 26.8735 13.7435 27.2637 13.5419Z" fill="black"/>
<path d="M18.6523 16.8255H20.7952C20.8033 15.9888 20.9247 15.1571 21.156 14.353C20.6843 14.227 20.229 14.0459 19.7997 13.8132C19.0948 14.6628 18.6913 15.7222 18.6523 16.8255Z" fill="black"/>
<path d="M23.4736 21.994V19.6899C22.8488 19.6988 22.2265 19.772 21.6167 19.9085C22.0384 21.0872 22.7089 21.8853 23.4736 21.994Z" fill="black"/>
<path d="M23.4738 17.1829H21.1528C21.1619 17.99 21.2802 18.7922 21.5047 19.5675C22.151 19.4201 22.8109 19.3414 23.4738 19.3326V17.1829Z" fill="black"/>
<path d="M23.4736 12.0142C22.7089 12.1228 22.0384 12.9209 21.6167 14.0996C22.2265 14.2363 22.8488 14.3095 23.4736 14.3182V12.0142Z" fill="black"/>
<path d="M23.4738 14.6756C22.811 14.6669 22.151 14.5882 21.5047 14.4408C21.2802 15.2161 21.1619 16.0183 21.1528 16.8254H23.4738V14.6756Z" fill="black"/>
<path d="M22.4078 12.1587C22.3933 12.1624 22.3788 12.1655 22.3643 12.1693C22.3264 12.1794 22.2891 12.1906 22.2514 12.2015C22.2065 12.2146 22.162 12.2278 22.117 12.2421C22.079 12.2544 22.0417 12.2675 22.0043 12.2805C21.9606 12.296 21.9168 12.3113 21.8735 12.3277C21.8362 12.342 21.7994 12.3569 21.7624 12.3721C21.7199 12.3899 21.6773 12.4078 21.6353 12.4256C21.5985 12.4418 21.5621 12.4587 21.5256 12.4757C21.4843 12.4952 21.4432 12.515 21.4025 12.5356C21.3667 12.5538 21.3309 12.5725 21.2952 12.5915C21.2552 12.613 21.2155 12.635 21.176 12.6575C21.1403 12.6775 21.1051 12.698 21.0706 12.7189C21.0318 12.7423 20.9934 12.7665 20.9552 12.7904C20.9208 12.8124 20.8867 12.8346 20.8529 12.8574C20.8152 12.8828 20.778 12.9093 20.741 12.9357C20.7078 12.9595 20.6747 12.9833 20.6421 13.0073C20.6056 13.0347 20.5707 13.0634 20.5339 13.0919C20.5021 13.1173 20.4701 13.1425 20.439 13.1688C20.4032 13.1983 20.3693 13.2288 20.3348 13.2594C20.3043 13.2866 20.2735 13.313 20.2436 13.3412C20.2097 13.3729 20.1766 13.4058 20.1434 13.4384C20.1146 13.4669 20.0853 13.495 20.057 13.5242C20.0519 13.5296 20.0469 13.5356 20.0415 13.5411C20.4312 13.7425 20.8419 13.9005 21.2661 14.0124C21.4867 13.3092 21.879 12.6721 22.4078 12.1587Z" fill="black"/>
<path d="M20.1427 20.5685C20.176 20.6012 20.2091 20.6343 20.2432 20.6661C20.2729 20.6936 20.3034 20.7197 20.3339 20.7472C20.3685 20.778 20.4031 20.8089 20.4388 20.8386C20.4696 20.8645 20.5011 20.8895 20.5327 20.9147C20.5685 20.9436 20.6042 20.9724 20.6421 21.0003C20.6743 21.0245 20.707 21.0478 20.7397 21.0718C20.7771 21.0986 20.8148 21.1254 20.8528 21.1512C20.8862 21.1737 20.9202 21.1957 20.9541 21.2173C20.9928 21.2421 21.0314 21.2664 21.0707 21.29C21.1052 21.3108 21.14 21.3311 21.1749 21.351C21.2149 21.3739 21.2549 21.396 21.2953 21.4176C21.331 21.4355 21.3668 21.4549 21.4026 21.4728C21.4437 21.4936 21.4851 21.5136 21.5276 21.5333C21.5634 21.5501 21.5997 21.5667 21.6365 21.5829C21.6789 21.6017 21.7215 21.6186 21.7643 21.6365C21.8011 21.6515 21.8378 21.6664 21.875 21.6805C21.9183 21.6972 21.9623 21.7127 22.0063 21.7279C22.0435 21.7409 22.0806 21.754 22.1183 21.7661C22.163 21.7806 22.2077 21.7939 22.2536 21.807C22.2908 21.818 22.3281 21.829 22.3656 21.8391C22.3801 21.843 22.3948 21.8461 22.4093 21.8498C21.8803 21.3361 21.4878 20.6986 21.2671 19.995C20.8429 20.107 20.4322 20.265 20.0425 20.4665C20.0477 20.4718 20.0527 20.4776 20.0579 20.4831C20.0847 20.512 20.1136 20.5401 20.1427 20.5685Z" fill="black"/>
<path d="M19.7997 20.1951C20.229 19.9626 20.6843 19.7814 21.156 19.6554C20.9247 18.8513 20.8033 18.0196 20.7952 17.1829H18.6523C18.6914 18.2861 19.0948 19.3455 19.7997 20.1951Z" fill="black"/>
</g>
<path d="M39.6092 19.4238L43.0587 15.2168V14.3027H38.5333V15.1816H41.9089L38.4707 19.377V20.3027H43.2352V19.4238H39.6092Z" fill="black"/>
<path d="M44.5615 20.3027H45.5519V17.0625C45.5519 15.8848 46.2635 15.041 47.2255 15.041H47.3109C48.159 15.041 48.5632 15.5742 48.5632 16.5527V20.3027H49.5536V16.3125C49.5536 15 48.751 14.1855 47.4759 14.1855C46.5822 14.1855 45.9219 14.584 45.5519 15.1992V14.3027H44.5615V20.3027Z" fill="black"/>
<path d="M55.7639 20.3027C55.7241 20.0215 55.707 19.582 55.707 18.9844V16.4648C55.7184 15.2285 54.8646 14.168 53.3789 14.1855C52.0867 14.1855 51.1304 14.9414 51.0621 16.0254H52.0526C52.0867 15.709 52.2233 15.4688 52.4624 15.2988C52.7072 15.1289 52.9975 15.041 53.339 15.041H53.4187C54.2213 15.041 54.7109 15.5684 54.7109 16.4648V16.6758L53.0259 16.8047C52.451 16.8574 51.9615 17.0215 51.5516 17.3086C51.1475 17.5898 50.9426 18.0352 50.9426 18.6445C50.9198 19.6465 51.785 20.4375 52.8381 20.4199C53.7716 20.4199 54.5344 19.8984 54.7735 19.3418C54.7735 19.793 54.7906 20.1094 54.8304 20.3027H55.7639ZM54.7109 18.1406C54.745 18.8848 53.783 19.582 53.0544 19.5645H52.9519C52.3713 19.5645 51.933 19.1426 51.933 18.5977C51.933 18.0293 52.4283 17.6484 53.1796 17.584L54.7109 17.4668V18.1406Z" fill="black"/>
<path d="M57.4375 20.3027H58.4279V17.0625C58.4279 15.8848 59.1395 15.041 60.1015 15.041H60.1869C61.035 15.041 61.4392 15.5742 61.4392 16.5527V20.3027H62.4296V16.3125C62.4296 15 61.627 14.1855 60.3519 14.1855C59.4583 14.1855 58.7979 14.584 58.4279 15.1992V14.3027H57.4375V20.3027Z" fill="black"/>
<path d="M64.1089 13.2246H65.2132V12H64.1089V13.2246ZM64.1658 20.3027H65.1563V14.3027H64.1658V20.3027Z" fill="black"/>
<path d="M66.5964 17.291C66.5793 19.3125 67.8203 20.4375 69.2946 20.4199C70.5013 20.4199 71.4747 19.7344 71.691 18.5449H70.7006C70.5583 19.207 70.0346 19.5645 69.3686 19.5645H69.2832C68.4692 19.5762 67.621 18.8555 67.5869 17.4434H71.7024V16.8398C71.7195 15.3047 70.729 14.168 69.2718 14.1855C67.8829 14.168 66.568 15.2871 66.5964 17.291ZM67.6381 16.623C67.8203 15.4805 68.5204 15.041 69.2149 15.041H69.3173C70.0801 15.041 70.6778 15.5918 70.712 16.623H67.6381Z" fill="black"/>
<path d="M73.171 20.3027H74.1615V17.3086C74.1615 16.002 74.8161 15.2168 75.892 15.2168H76.3587V14.2441H75.835C75.4309 14.2441 75.0723 14.3672 74.7535 14.6074C74.4404 14.8477 74.2241 15.1934 74.1046 15.6387V14.3027H73.171V20.3027Z" fill="black"/>
<path d="M77.4289 18.2637C77.4289 19.541 78.1404 20.4199 79.4212 20.4199C79.8993 20.4199 80.3035 20.3027 80.628 20.0742C80.9524 19.8398 81.1801 19.5352 81.311 19.166V20.3027H82.3072V14.3027H81.311V17.543C81.3281 18.7617 80.554 19.582 79.7684 19.5645H79.6717C78.8349 19.5645 78.4193 19.0488 78.4193 18.0234V14.3027H77.4289V18.2637Z" fill="black"/>
<path d="M83.6563 18.4629C83.679 19.5996 84.5101 20.4199 86.0186 20.4199C87.3449 20.4199 88.2614 19.7168 88.2614 18.6211C88.2614 18.123 88.119 17.7422 87.8344 17.4785C87.5555 17.2148 87.1741 17.0273 86.6903 16.9277L85.7738 16.7285C85.1363 16.5938 84.8801 16.3594 84.8801 15.8965C84.8801 15.4395 85.3184 15.041 86.0072 15.041H86.1097C86.8383 15.041 87.2595 15.5098 87.3278 16.1426H88.3183C88.2955 15.0352 87.527 14.1855 86.0527 14.1855C84.8915 14.1738 83.8612 14.8652 83.884 16.002C83.884 16.4766 84.0377 16.8516 84.3394 17.127C84.641 17.3965 85.0452 17.584 85.5518 17.6895L86.4 17.8652C87.0318 18 87.2709 18.2578 87.2709 18.6855C87.2709 18.9492 87.1627 19.166 86.9464 19.3242C86.7301 19.4824 86.4512 19.5645 86.1097 19.5645H86.0072C85.2501 19.5645 84.7094 19.1895 84.6467 18.4629H83.6563Z" fill="black"/>
<path d="M89.303 18.4629C89.3258 19.5996 90.1569 20.4199 91.6654 20.4199C92.9917 20.4199 93.9081 19.7168 93.9081 18.6211C93.9081 18.123 93.7658 17.7422 93.4812 17.4785C93.2023 17.2148 92.8209 17.0273 92.337 16.9277L91.4206 16.7285C90.783 16.5938 90.5269 16.3594 90.5269 15.8965C90.5269 15.4395 90.9652 15.041 91.654 15.041H91.7564C92.4851 15.041 92.9063 15.5098 92.9746 16.1426H93.965C93.9423 15.0352 93.1738 14.1855 91.6995 14.1855C90.5383 14.1738 89.508 14.8652 89.5307 16.002C89.5307 16.4766 89.6844 16.8516 89.9861 17.127C90.2878 17.3965 90.692 17.584 91.1986 17.6895L92.0467 17.8652C92.6786 18 92.9177 18.2578 92.9177 18.6855C92.9177 18.9492 92.8095 19.166 92.5932 19.3242C92.3769 19.4824 92.098 19.5645 91.7564 19.5645H91.654C90.8969 19.5645 90.3561 19.1895 90.2935 18.4629H89.303Z" fill="black"/>
<path d="M95.3369 13.2246H96.4412V12H95.3369V13.2246ZM95.3938 20.3027H96.3843V14.3027H95.3938V20.3027Z" fill="black"/>
<path d="M102.646 20.3027C102.606 20.0215 102.589 19.582 102.589 18.9844V16.4648C102.6 15.2285 101.746 14.168 100.261 14.1855C98.9686 14.1855 98.0123 14.9414 97.944 16.0254H98.9344C98.9686 15.709 99.1052 15.4688 99.3443 15.2988C99.5891 15.1289 99.8794 15.041 100.221 15.041H100.301C101.103 15.041 101.593 15.5684 101.593 16.4648V16.6758L99.9078 16.8047C99.3329 16.8574 98.8434 17.0215 98.4335 17.3086C98.0294 17.5898 97.8244 18.0352 97.8244 18.6445C97.8017 19.6465 98.6669 20.4375 99.72 20.4199C100.654 20.4199 101.416 19.8984 101.655 19.3418C101.655 19.793 101.672 20.1094 101.712 20.3027H102.646ZM101.593 18.1406C101.627 18.8848 100.665 19.582 99.9363 19.5645H99.8338C99.2532 19.5645 98.8149 19.1426 98.8149 18.5977C98.8149 18.0293 99.3101 17.6484 100.062 17.584L101.593 17.4668V18.1406Z" fill="black"/>
<path d="M104.211 20.3027H105.532V18.9434H104.211V20.3027Z" fill="black"/>
<path d="M107.211 20.3027H108.202V17.3086C108.202 16.002 108.856 15.2168 109.932 15.2168H110.399V14.2441H109.875C109.471 14.2441 109.112 14.3672 108.794 14.6074C108.48 14.8477 108.264 15.1934 108.145 15.6387V14.3027H107.211V20.3027Z" fill="black"/>
<path d="M111.469 18.2637C111.469 19.541 112.18 20.4199 113.461 20.4199C113.939 20.4199 114.344 20.3027 114.668 20.0742C114.992 19.8398 115.22 19.5352 115.351 19.166V20.3027H116.347V14.3027H115.351V17.543C115.368 18.7617 114.594 19.582 113.808 19.5645H113.712C112.875 19.5645 112.459 19.0488 112.459 18.0234V14.3027H111.469V18.2637Z" fill="black"/>
<rect x="0.25" y="0.25" width="134.5" height="35.5" rx="6.75" stroke="black" stroke-width="0.5"/>
<defs>
<clipPath id="clip0">
<rect width="10" height="10" fill="white" transform="translate(18.6523 12)"/>
</clipPath>
</defs>
</svg>
