<svg width="132" height="36" viewBox="0 0 132 36" fill="none" xmlns="http://www.w3.org/2000/svg">
<path d="M23.6405 12.0186C22.2882 12.0186 22.1186 12.0186 21.5869 12.048C21.1724 12.0564 20.7642 12.1361 20.3769 12.2808C19.7029 12.5388 19.1691 13.0736 18.9116 13.749C18.7671 14.137 18.6876 14.546 18.6792 14.9613C18.6562 15.4941 18.6499 15.6639 18.6499 17.0189C18.6499 18.3738 18.6499 18.5437 18.6792 19.0765C18.696 19.4854 18.7818 19.8882 18.9304 20.2699C19.1879 20.9453 19.7217 21.4801 20.3958 21.7381C20.783 21.8828 21.1912 21.9625 21.6057 21.9709C22.1374 21.994 22.307 22.0003 23.6593 22.0003C25.0116 22.0003 25.1812 22.0003 25.7129 21.9709C26.1274 21.9625 26.5356 21.8828 26.9229 21.7381C27.5969 21.4801 28.1307 20.9453 28.3882 20.2699C28.5327 19.8819 28.6122 19.4729 28.6206 19.0576C28.6436 18.5248 28.6499 18.3549 28.6499 17C28.6499 15.6451 28.6499 15.4752 28.6206 14.9424C28.6122 14.5271 28.5327 14.1182 28.3882 13.7301C28.1307 13.0548 27.5969 12.5199 26.9229 12.2619C26.5356 12.1172 26.1274 12.0375 25.7129 12.0291C25.1812 12.006 25.0116 11.9998 23.6593 11.9998L23.6405 12.0186Z" fill="black"/>
<path d="M23.6402 14.437C22.2271 14.437 21.082 15.5843 21.082 17C21.082 18.4158 22.2271 19.5631 23.6402 19.5631C25.0532 19.5631 26.1983 18.4158 26.1983 17C26.1983 15.5843 25.0532 14.437 23.6402 14.437ZM23.6402 18.6633C22.7233 18.6633 21.9801 17.9187 21.9801 17C21.9801 16.0814 22.7233 15.3368 23.6402 15.3368C24.5571 15.3368 25.3002 16.0814 25.3002 17C25.3002 17.9187 24.5571 18.6633 23.6402 18.6633Z" fill="#EFEFEF"/>
<path d="M26.2985 14.9355C26.629 14.9355 26.8968 14.6671 26.8968 14.336C26.8968 14.0049 26.629 13.7365 26.2985 13.7365C25.9681 13.7365 25.7002 14.0049 25.7002 14.336C25.7002 14.6671 25.9681 14.9355 26.2985 14.9355Z" fill="#EFEFEF"/>
<path d="M38.4661 17.0387C38.4376 20.4195 40.6232 22.2828 43.4633 22.2594H46.3774V21.357H43.5202C41.1184 21.3805 39.4337 19.7106 39.4621 17.0387C39.4621 16.2184 39.6386 15.4977 39.9857 14.8708C40.3329 14.2439 40.8053 13.7575 41.3972 13.4177C41.9892 13.072 42.6437 12.9021 43.3551 12.9021C45.5919 12.8786 47.1059 14.3962 47.0774 16.5407C47.0888 18.152 46.3091 18.8024 45.6716 18.7965H45.4439V14.7595H44.5504V15.5622C44.2829 15.0231 43.7877 14.6423 43.0649 14.6423C41.8924 14.6247 40.9021 15.5856 40.9192 17.1618C40.9021 18.7321 41.8924 19.7574 43.0649 19.7399C43.4234 19.7399 43.7422 19.6461 44.0097 19.4645C44.2772 19.2828 44.4707 19.0543 44.5902 18.7907V19.6168H45.7285C46.9067 19.6403 48.0962 18.4918 48.0678 16.5407C48.0678 15.697 47.8629 14.9294 47.4531 14.238C47.049 13.5407 46.4855 12.9958 45.7627 12.5974C45.0455 12.199 44.243 11.9998 43.3551 11.9998C42.5128 11.9998 41.716 12.2048 40.9647 12.6091C40.2191 13.0134 39.6158 13.5993 39.1548 14.3669C38.6938 15.1286 38.4661 16.0192 38.4661 17.0387ZM43.1446 18.9196C42.3876 18.9196 41.9095 18.193 41.9095 17.1618C41.9095 16.1188 42.4331 15.4567 43.1844 15.4567H43.2527C43.9983 15.4567 44.5504 16.1598 44.5504 17.1618C44.5674 18.1286 43.9584 18.9371 43.2185 18.9196H43.1446Z" fill="black"/>
<path d="M50.3216 19.8805L53.7707 15.6735V14.7595H49.2459V15.6384H52.621L49.1833 19.8336V20.7594H53.9471V19.8805H50.3216Z" fill="black"/>
<path d="M55.2733 20.7594H56.2636V17.5192C56.2636 16.3415 56.975 15.4977 57.9369 15.4977H58.0223C58.8703 15.4977 59.2744 16.0309 59.2744 17.0094V20.7594H60.2648V16.7692C60.2648 15.4567 59.4622 14.6423 58.1873 14.6423C57.2938 14.6423 56.6335 15.0407 56.2636 15.6559V14.7595H55.2733V20.7594Z" fill="black"/>
<path d="M66.4742 20.7594C66.4344 20.4781 66.4173 20.0387 66.4173 19.441V16.9215C66.4287 15.6852 65.575 14.6247 64.0895 14.6423C62.7975 14.6423 61.8413 15.3981 61.773 16.4821H62.7634C62.7975 16.1657 62.9341 15.9255 63.1731 15.7556C63.4179 15.5856 63.7082 15.4977 64.0496 15.4977H64.1293C64.9318 15.4977 65.4213 16.0251 65.4213 16.9215V17.1325L63.7366 17.2614C63.1618 17.3141 62.6723 17.4782 62.2625 17.7653C61.8584 18.0465 61.6535 18.4918 61.6535 19.1012C61.6307 20.1031 62.4958 20.8941 63.5488 20.8766C64.4822 20.8766 65.2449 20.3551 65.4839 19.7985C65.4839 20.2496 65.501 20.566 65.5408 20.7594H66.4742ZM65.4213 18.5973C65.4555 19.3414 64.4936 20.0387 63.7651 20.0211H63.6626C63.0821 20.0211 62.6438 19.5992 62.6438 19.0543C62.6438 18.486 63.139 18.1051 63.8903 18.0407L65.4213 17.9235V18.5973Z" fill="black"/>
<path d="M68.1476 20.7594H69.1379V17.5192C69.1379 16.3415 69.8493 15.4977 70.8112 15.4977H70.8966C71.7446 15.4977 72.1487 16.0309 72.1487 17.0094V20.7594H73.1391V16.7692C73.1391 15.4567 72.3366 14.6423 71.0616 14.6423C70.1681 14.6423 69.5078 15.0407 69.1379 15.6559V14.7595H68.1476V20.7594Z" fill="black"/>
<path d="M74.8181 13.6814H75.9222V12.4568H74.8181V13.6814ZM74.875 20.7594H75.8653V14.7595H74.875V20.7594Z" fill="black"/>
<path d="M77.3053 17.7477C77.2882 19.7692 78.529 20.8941 80.0031 20.8766C81.2097 20.8766 82.1829 20.191 82.3992 19.0016H81.4089C81.2666 19.6637 80.743 20.0211 80.0771 20.0211H79.9917C79.1778 20.0328 78.3298 19.3121 78.2956 17.9H82.4106V17.2965C82.4277 15.7614 81.4373 14.6247 79.9803 14.6423C78.5916 14.6247 77.2768 15.7438 77.3053 17.7477ZM78.3468 17.0797C78.529 15.9372 79.229 15.4977 79.9234 15.4977H80.0258C80.7885 15.4977 81.3861 16.0485 81.4203 17.0797H78.3468Z" fill="black"/>
<path d="M83.879 20.7594H84.8694V17.7653C84.8694 16.4587 85.5239 15.6735 86.5996 15.6735H87.0663V14.7009H86.5427C86.1386 14.7009 85.78 14.8239 85.4613 15.0642C85.1482 15.3044 84.932 15.6501 84.8124 16.0954V14.7595H83.879V20.7594Z" fill="black"/>
<path d="M88.1363 18.7203C88.1363 19.9977 88.8478 20.8766 90.1284 20.8766C90.6064 20.8766 91.0105 20.7594 91.335 20.5309C91.6594 20.2965 91.887 19.9918 92.018 19.6227V20.7594H93.014V14.7595H92.018V17.9997C92.035 19.2184 91.261 20.0387 90.4755 20.0211H90.3788C89.5421 20.0211 89.1266 19.5055 89.1266 18.4801V14.7595H88.1363V18.7203Z" fill="black"/>
<path d="M94.3629 18.9196C94.3856 20.0563 95.2166 20.8766 96.7249 20.8766C98.051 20.8766 98.9673 20.1734 98.9673 19.0778C98.9673 18.5797 98.8251 18.1989 98.5405 17.9352C98.2616 17.6715 97.8803 17.484 97.3965 17.3844L96.4801 17.1852C95.8427 17.0505 95.5866 16.8161 95.5866 16.3532C95.5866 15.8962 96.0248 15.4977 96.7135 15.4977H96.8159C97.5445 15.4977 97.9656 15.9665 98.0339 16.5993H99.0243C99.0015 15.4919 98.2331 14.6423 96.759 14.6423C95.5979 14.6306 94.5678 15.322 94.5905 16.4587C94.5905 16.9333 94.7442 17.3083 95.0459 17.5836C95.3475 17.8532 95.7516 18.0407 96.2582 18.1461L97.1062 18.3219C97.738 18.4567 97.977 18.7145 97.977 19.1422C97.977 19.4059 97.8689 19.6227 97.6526 19.7809C97.4363 19.9391 97.1574 20.0211 96.8159 20.0211H96.7135C95.9565 20.0211 95.4158 19.6461 95.3532 18.9196H94.3629Z" fill="black"/>
<path d="M100.009 18.9196C100.032 20.0563 100.863 20.8766 102.371 20.8766C103.697 20.8766 104.613 20.1734 104.613 19.0778C104.613 18.5797 104.471 18.1989 104.187 17.9352C103.908 17.6715 103.526 17.484 103.042 17.3844L102.126 17.1852C101.489 17.0505 101.233 16.8161 101.233 16.3532C101.233 15.8962 101.671 15.4977 102.36 15.4977H102.462C103.19 15.4977 103.612 15.9665 103.68 16.5993H104.67C104.648 15.4919 103.879 14.6423 102.405 14.6423C101.244 14.6306 100.214 15.322 100.237 16.4587C100.237 16.9333 100.39 17.3083 100.692 17.5836C100.994 17.8532 101.398 18.0407 101.904 18.1461L102.752 18.3219C103.384 18.4567 103.623 18.7145 103.623 19.1422C103.623 19.4059 103.515 19.6227 103.299 19.7809C103.082 19.9391 102.803 20.0211 102.462 20.0211H102.36C101.603 20.0211 101.062 19.6461 100.999 18.9196H100.009Z" fill="black"/>
<path d="M106.042 13.6814H107.146V12.4568H106.042V13.6814ZM106.099 20.7594H107.089V14.7595H106.099V20.7594Z" fill="black"/>
<path d="M113.35 20.7594C113.31 20.4781 113.293 20.0387 113.293 19.441V16.9215C113.304 15.6852 112.451 14.6247 110.965 14.6423C109.673 14.6423 108.717 15.3981 108.649 16.4821H109.639C109.673 16.1657 109.81 15.9255 110.049 15.7556C110.294 15.5856 110.584 15.4977 110.925 15.4977H111.005C111.807 15.4977 112.297 16.0251 112.297 16.9215V17.1325L110.612 17.2614C110.037 17.3141 109.548 17.4782 109.138 17.7653C108.734 18.0465 108.529 18.4918 108.529 19.1012C108.506 20.1031 109.372 20.8941 110.424 20.8766C111.358 20.8766 112.121 20.3551 112.36 19.7985C112.36 20.2496 112.377 20.566 112.416 20.7594H113.35ZM112.297 18.5973C112.331 19.3414 111.369 20.0387 110.641 20.0211H110.538C109.958 20.0211 109.519 19.5992 109.519 19.0543C109.519 18.486 110.015 18.1051 110.766 18.0407L112.297 17.9235V18.5973Z" fill="black"/>
<rect x="0.25" y="0.25" width="131.5" height="35.5" rx="6.75" stroke="black" stroke-width="0.5"/>
</svg>
