<svg width="117" height="36" viewBox="0 0 117 36" fill="none" xmlns="http://www.w3.org/2000/svg">
<g clip-path="url(#clip0)">
<path d="M26.2685 13.9925H27.3265V12.0845C27.144 12.0585 26.5162 12 25.7851 12C24.2596 12 23.2146 12.9935 23.2146 14.8195V16.5H21.5312V18.633H23.2146V24H25.2785V18.6335H26.8938L27.1502 16.5005H25.278V15.031C25.2785 14.4145 25.4388 13.9925 26.2685 13.9925Z" fill="black"/>
</g>
<path d="M38.2459 17.0391C38.2176 20.4199 40.3906 22.2832 43.2144 22.2598H46.1118V21.3574H43.271C40.8829 21.3809 39.2079 19.7109 39.2362 17.0391C39.2362 16.2188 39.4116 15.498 39.7568 14.8711C40.102 14.2441 40.5717 13.7578 41.1602 13.418C41.7488 13.0723 42.3995 12.9023 43.1069 12.9023C45.3309 12.8789 46.8361 14.3965 46.8079 16.541C46.8192 18.1523 46.0439 18.8027 45.4101 18.7969H45.1837V14.7598H44.2953V15.5625C44.0293 15.0234 43.537 14.6426 42.8183 14.6426C41.6526 14.625 40.6679 15.5859 40.6849 17.1621C40.6679 18.7324 41.6526 19.7578 42.8183 19.7402C43.1748 19.7402 43.4917 19.6465 43.7577 19.4648C44.0237 19.2832 44.2161 19.0547 44.3349 18.791V19.6172H45.4667C46.6381 19.6406 47.8208 18.4922 47.7925 16.541C47.7925 15.6973 47.5888 14.9297 47.1813 14.2383C46.7796 13.541 46.2193 12.9961 45.5006 12.5977C44.7876 12.1992 43.9897 12 43.1069 12C42.2694 12 41.4771 12.2051 40.7302 12.6094C39.9888 13.0137 39.389 13.5996 38.9306 14.3672C38.4722 15.1289 38.2459 16.0195 38.2459 17.0391ZM42.8975 18.9199C42.1449 18.9199 41.6695 18.1934 41.6695 17.1621C41.6695 16.1191 42.1902 15.457 42.9371 15.457H43.005C43.7464 15.457 44.2953 16.1602 44.2953 17.1621C44.3123 18.1289 43.7068 18.9375 42.9711 18.9199H42.8975Z" fill="black"/>
<path d="M50.0335 19.8809L53.4628 15.6738V14.7598H48.9639V15.6387H52.3197L48.9017 19.834V20.7598H53.6382V19.8809H50.0335Z" fill="black"/>
<path d="M54.9567 20.7598H55.9414V17.5195C55.9414 16.3418 56.6488 15.498 57.6051 15.498H57.69C58.5332 15.498 58.935 16.0312 58.935 17.0098V20.7598H59.9196V16.7695C59.9196 15.457 59.1217 14.6426 57.8541 14.6426C56.9657 14.6426 56.3092 15.041 55.9414 15.6563V14.7598H54.9567V20.7598Z" fill="black"/>
<path d="M66.0935 20.7598C66.0539 20.4785 66.0369 20.0391 66.0369 19.4414V16.9219C66.0483 15.6855 65.1994 14.625 63.7224 14.6426C62.4378 14.6426 61.4871 15.3984 61.4192 16.4824H62.4039C62.4378 16.166 62.5737 15.9258 62.8113 15.7559C63.0547 15.5859 63.3433 15.498 63.6828 15.498H63.762C64.56 15.498 65.0466 16.0254 65.0466 16.9219V17.1328L63.3716 17.2617C62.8 17.3145 62.3134 17.4785 61.9059 17.7656C61.5041 18.0469 61.3004 18.4922 61.3004 19.1016C61.2778 20.1035 62.1379 20.8945 63.1848 20.877C64.1129 20.877 64.8712 20.3555 65.1089 19.7988C65.1089 20.25 65.1258 20.5664 65.1655 20.7598H66.0935ZM65.0466 18.5977C65.0806 19.3418 64.1242 20.0391 63.3999 20.0215H63.298C62.7208 20.0215 62.2851 19.5996 62.2851 19.0547C62.2851 18.4863 62.7774 18.1055 63.5244 18.041L65.0466 17.9238V18.5977Z" fill="black"/>
<path d="M67.7573 20.7598H68.7419V17.5195C68.7419 16.3418 69.4493 15.498 70.4056 15.498H70.4905C71.3337 15.498 71.7355 16.0312 71.7355 17.0098V20.7598H72.7201V16.7695C72.7201 15.457 71.9222 14.6426 70.6546 14.6426C69.7662 14.6426 69.1097 15.041 68.7419 15.6563V14.7598H67.7573V20.7598Z" fill="black"/>
<path d="M74.3895 13.6816H75.4874V12.457H74.3895V13.6816ZM74.4461 20.7598H75.4308V14.7598H74.4461V20.7598Z" fill="black"/>
<path d="M76.8625 17.748C76.8455 19.7695 78.0792 20.8945 79.5448 20.877C80.7445 20.877 81.7122 20.1914 81.9272 19.002H80.9426C80.8011 19.6641 80.2805 20.0215 79.6184 20.0215H79.5335C78.7243 20.0332 77.8811 19.3125 77.8471 17.9004H81.9386V17.2969C81.9555 15.7617 80.9709 14.625 79.5222 14.6426C78.1414 14.625 76.8342 15.7441 76.8625 17.748ZM77.8981 17.0801C78.0792 15.9375 78.7752 15.498 79.4656 15.498H79.5675C80.3258 15.498 80.9199 16.0488 80.9539 17.0801H77.8981Z" fill="black"/>
<path d="M83.3986 20.7598H84.3832V17.7656C84.3832 16.459 85.034 15.6738 86.1035 15.6738H86.5676V14.7012H86.0469C85.6452 14.7012 85.2886 14.8242 84.9717 15.0645C84.6605 15.3047 84.4455 15.6504 84.3266 16.0957V14.7598H83.3986V20.7598Z" fill="black"/>
<path d="M87.6315 18.7207C87.6315 19.998 88.3388 20.877 89.6121 20.877C90.0874 20.877 90.4892 20.7598 90.8118 20.5312C91.1343 20.2969 91.3607 19.9922 91.4908 19.623V20.7598H92.4812V14.7598H91.4908V18C91.5078 19.2188 90.7382 20.0391 89.9573 20.0215H89.8611C89.0292 20.0215 88.6161 19.5059 88.6161 18.4805V14.7598H87.6315V18.7207Z" fill="black"/>
<path d="M93.8223 18.9199C93.845 20.0566 94.6712 20.877 96.1708 20.877C97.4893 20.877 98.4004 20.1738 98.4004 19.0781C98.4004 18.5801 98.2589 18.1992 97.976 17.9355C97.6987 17.6719 97.3196 17.4844 96.8385 17.3848L95.9275 17.1855C95.2937 17.0508 95.039 16.8164 95.039 16.3535C95.039 15.8965 95.4747 15.498 96.1595 15.498H96.2613C96.9857 15.498 97.4044 15.9668 97.4723 16.5996H98.457C98.4344 15.4922 97.6704 14.6426 96.2047 14.6426C95.0503 14.6309 94.0261 15.3223 94.0487 16.459C94.0487 16.9336 94.2015 17.3086 94.5014 17.584C94.8013 17.8535 95.2031 18.041 95.7068 18.1465L96.5499 18.3223C97.1781 18.457 97.4158 18.7148 97.4158 19.1426C97.4158 19.4063 97.3082 19.623 97.0932 19.7813C96.8782 19.9395 96.6009 20.0215 96.2613 20.0215H96.1595C95.4068 20.0215 94.8692 19.6465 94.807 18.9199H93.8223Z" fill="black"/>
<rect x="0.25" y="0.25" width="116.5" height="35.5" rx="6.75" stroke="black" stroke-width="0.5"/>
<defs>
<clipPath id="clip0">
<rect width="11.5895" height="12" fill="white" transform="translate(18.5435 12)"/>
</clipPath>
</defs>
</svg>
