<svg width="138" height="36" viewBox="0 0 138 36" fill="none" xmlns="http://www.w3.org/2000/svg">
<path d="M38.5015 17.0391C38.473 20.4199 40.6606 22.2832 43.5033 22.2598H46.42V21.3574H43.5602C41.1562 21.3809 39.4699 19.7109 39.4984 17.0391C39.4984 16.2188 39.675 15.498 40.0225 14.8711C40.37 14.2441 40.8429 13.7578 41.4353 13.418C42.0278 13.0723 42.6829 12.9023 43.395 12.9023C45.6339 12.8789 47.1492 14.3965 47.1207 16.541C47.1321 18.1523 46.3516 18.8027 45.7136 18.7969H45.4857V14.7598H44.5913V15.5625C44.3236 15.0234 43.828 14.6426 43.1045 14.6426C41.931 14.625 40.9397 15.5859 40.9568 17.1621C40.9397 18.7324 41.931 19.7578 43.1045 19.7402C43.4634 19.7402 43.7824 19.6465 44.0502 19.4648C44.3179 19.2832 44.5116 19.0547 44.6312 18.791V19.6172H45.7706C46.9498 19.6406 48.1404 18.4922 48.1119 16.541C48.1119 15.6973 47.9069 14.9297 47.4967 14.2383C47.0922 13.541 46.5282 12.9961 45.8048 12.5977C45.087 12.1992 44.2837 12 43.395 12C42.5519 12 41.7544 12.2051 41.0024 12.6094C40.2561 13.0137 39.6522 13.5996 39.1908 14.3672C38.7294 15.1289 38.5015 16.0195 38.5015 17.0391ZM43.1842 18.9199C42.4266 18.9199 41.948 18.1934 41.948 17.1621C41.948 16.1191 42.4721 15.457 43.2241 15.457H43.2925C44.0388 15.457 44.5913 16.1602 44.5913 17.1621C44.6084 18.1289 43.9989 18.9375 43.2583 18.9199H43.1842Z" fill="black"/>
<path d="M50.3679 19.8809L53.8201 15.6738V14.7598H49.2912V15.6387H52.6694L49.2285 19.834V20.7598H53.9967V19.8809H50.3679Z" fill="black"/>
<path d="M55.3241 20.7598H56.3153V17.5195C56.3153 16.3418 57.0274 15.498 57.9902 15.498H58.0756C58.9244 15.498 59.3289 16.0312 59.3289 17.0098V20.7598H60.3201V16.7695C60.3201 15.457 59.5169 14.6426 58.2408 14.6426C57.3464 14.6426 56.6856 15.041 56.3153 15.6563V14.7598H55.3241V20.7598Z" fill="black"/>
<path d="M66.5353 20.7598C66.4954 20.4785 66.4783 20.0391 66.4783 19.4414V16.9219C66.4897 15.6855 65.6352 14.625 64.1484 14.6426C62.8552 14.6426 61.8981 15.3984 61.8298 16.4824H62.821C62.8552 16.166 62.9919 15.9258 63.2312 15.7559C63.4761 15.5859 63.7667 15.498 64.1085 15.498H64.1882C64.9915 15.498 65.4814 16.0254 65.4814 16.9219V17.1328L63.7952 17.2617C63.2198 17.3145 62.7299 17.4785 62.3197 17.7656C61.9152 18.0469 61.7101 18.4922 61.7101 19.1016C61.6874 20.1035 62.5533 20.8945 63.6072 20.877C64.5414 20.877 65.3048 20.3555 65.5441 19.7988C65.5441 20.25 65.5612 20.5664 65.601 20.7598H66.5353ZM65.4814 18.5977C65.5156 19.3418 64.5528 20.0391 63.8236 20.0215H63.7211C63.14 20.0215 62.7014 19.5996 62.7014 19.0547C62.7014 18.4863 63.197 18.1055 63.949 18.041L65.4814 17.9238V18.5977Z" fill="black"/>
<path d="M68.2102 20.7598H69.2014V17.5195C69.2014 16.3418 69.9135 15.498 70.8763 15.498H70.9617C71.8105 15.498 72.215 16.0312 72.215 17.0098V20.7598H73.2062V16.7695C73.2062 15.457 72.403 14.6426 71.1269 14.6426C70.2325 14.6426 69.5717 15.041 69.2014 15.6563V14.7598H68.2102V20.7598Z" fill="black"/>
<path d="M74.8868 13.6816H75.992V12.457H74.8868V13.6816ZM74.9437 20.7598H75.935V14.7598H74.9437V20.7598Z" fill="black"/>
<path d="M77.3763 17.748C77.3592 19.7695 78.6011 20.8945 80.0765 20.877C81.2843 20.877 82.2584 20.1914 82.4749 19.002H81.4836C81.3412 19.6641 80.8171 20.0215 80.1506 20.0215H80.0651C79.2505 20.0332 78.4017 19.3125 78.3675 17.9004H82.4863V17.2969C82.5034 15.7617 81.5121 14.625 80.0538 14.6426C78.6637 14.625 77.3478 15.7441 77.3763 17.748ZM78.4188 17.0801C78.6011 15.9375 79.3018 15.498 79.9968 15.498H80.0993C80.8627 15.498 81.4609 16.0488 81.495 17.0801H78.4188Z" fill="black"/>
<path d="M83.4092 21.6621H88.5818V20.7598H83.4092V21.6621Z" fill="black"/>
<path d="M89.8351 20.7598H90.8263V17.7656C90.8263 16.459 91.4815 15.6738 92.5582 15.6738H93.0253V14.7012H92.5012C92.0967 14.7012 91.7378 14.8242 91.4188 15.0645C91.1055 15.3047 90.889 15.6504 90.7694 16.0957V14.7598H89.8351V20.7598Z" fill="black"/>
<path d="M94.0963 18.7207C94.0963 19.998 94.8084 20.877 96.0902 20.877C96.5687 20.877 96.9732 20.7598 97.2979 20.5312C97.6226 20.2969 97.8505 19.9922 97.9815 19.623V20.7598H98.9784V14.7598H97.9815V18C97.9986 19.2188 97.2238 20.0391 96.4377 20.0215H96.3408C95.5034 20.0215 95.0875 19.5059 95.0875 18.4805V14.7598H94.0963V18.7207Z" fill="black"/>
<path d="M100.329 18.9199C100.351 20.0566 101.183 20.877 102.693 20.877C104.02 20.877 104.937 20.1738 104.937 19.0781C104.937 18.5801 104.795 18.1992 104.51 17.9355C104.231 17.6719 103.849 17.4844 103.365 17.3848L102.448 17.1855C101.81 17.0508 101.553 16.8164 101.553 16.3535C101.553 15.8965 101.992 15.498 102.681 15.498H102.784C103.513 15.498 103.935 15.9668 104.003 16.5996H104.994C104.971 15.4922 104.202 14.6426 102.727 14.6426C101.565 14.6309 100.534 15.3223 100.556 16.459C100.556 16.9336 100.71 17.3086 101.012 17.584C101.314 17.8535 101.719 18.041 102.226 18.1465L103.074 18.3223C103.707 18.457 103.946 18.7148 103.946 19.1426C103.946 19.4063 103.838 19.623 103.621 19.7813C103.405 19.9395 103.126 20.0215 102.784 20.0215H102.681C101.924 20.0215 101.382 19.6465 101.32 18.9199H100.329Z" fill="black"/>
<path d="M105.98 18.9199C106.003 20.0566 106.834 20.877 108.344 20.877C109.671 20.877 110.588 20.1738 110.588 19.0781C110.588 18.5801 110.446 18.1992 110.161 17.9355C109.882 17.6719 109.5 17.4844 109.016 17.3848L108.099 17.1855C107.461 17.0508 107.205 16.8164 107.205 16.3535C107.205 15.8965 107.643 15.498 108.333 15.498H108.435C109.164 15.498 109.586 15.9668 109.654 16.5996H110.645C110.623 15.4922 109.854 14.6426 108.378 14.6426C107.216 14.6309 106.185 15.3223 106.208 16.459C106.208 16.9336 106.361 17.3086 106.663 17.584C106.965 17.8535 107.37 18.041 107.877 18.1465L108.726 18.3223C109.358 18.457 109.597 18.7148 109.597 19.1426C109.597 19.4063 109.489 19.623 109.272 19.7813C109.056 19.9395 108.777 20.0215 108.435 20.0215H108.333C107.575 20.0215 107.034 19.6465 106.971 18.9199H105.98Z" fill="black"/>
<path d="M112.018 13.6816H113.124V12.457H112.018V13.6816ZM112.075 20.7598H113.067V14.7598H112.075V20.7598Z" fill="black"/>
<path d="M119.333 20.7598C119.293 20.4785 119.276 20.0391 119.276 19.4414V16.9219C119.287 15.6855 118.433 14.625 116.946 14.6426C115.653 14.6426 114.696 15.3984 114.627 16.4824H115.619C115.653 16.166 115.79 15.9258 116.029 15.7559C116.274 15.5859 116.564 15.498 116.906 15.498H116.986C117.789 15.498 118.279 16.0254 118.279 16.9219V17.1328L116.593 17.2617C116.017 17.3145 115.528 17.4785 115.117 17.7656C114.713 18.0469 114.508 18.4922 114.508 19.1016C114.485 20.1035 115.351 20.8945 116.405 20.877C117.339 20.877 118.102 20.3555 118.342 19.7988C118.342 20.25 118.359 20.5664 118.399 20.7598H119.333ZM118.279 18.5977C118.313 19.3418 117.351 20.0391 116.621 20.0215H116.519C115.938 20.0215 115.499 19.5996 115.499 19.0547C115.499 18.4863 115.995 18.1055 116.747 18.041L118.279 17.9238V18.5977Z" fill="black"/>
<path d="M30.6175 17.5874C30.3911 17.3074 30.4559 17.1829 30.6175 16.9326C30.6204 16.9297 32.4889 14.4006 32.6814 13.5429L32.6826 13.5423C32.7782 13.2297 32.6826 13 32.22 13H30.6892C30.2996 13 30.1199 13.1971 30.0236 13.4177C30.0236 13.4177 29.2443 15.2451 28.1417 16.4297C27.7859 16.772 27.6214 16.8817 27.4271 16.8817C27.3315 16.8817 27.1827 16.772 27.1827 16.4594V13.5423C27.1827 13.1674 27.0736 13 26.751 13H24.3441C24.0997 13 23.9544 13.1749 23.9544 13.3377C23.9544 13.6931 24.5057 13.7749 24.5629 14.7749V16.9446C24.5629 17.42 24.4748 17.5074 24.2793 17.5074C23.759 17.5074 22.496 15.6726 21.7476 13.5726C21.5965 13.1651 21.4489 13.0006 21.0563 13.0006H19.525C19.0881 13.0006 19 13.1977 19 13.4183C19 13.808 19.5204 15.7457 21.4198 18.3057C22.6856 20.0531 24.4684 21 26.0901 21C27.0649 21 27.1839 20.7897 27.1839 20.428C27.1839 18.7583 27.0958 18.6006 27.584 18.6006C27.8104 18.6006 28.2001 18.7103 29.1101 19.5531C30.1502 20.5526 30.3211 21 30.9033 21H32.434C32.8704 21 33.0915 20.7897 32.9643 20.3749C32.6732 19.5023 30.7062 17.7074 30.6175 17.5874V17.5874Z" fill="black"/>
<rect x="0.25" y="0.25" width="137.5" height="35.5" rx="6.75" stroke="black" stroke-width="0.5"/>
</svg>
