<svg width="11" height="10" viewBox="0 0 11 10" fill="none" xmlns="http://www.w3.org/2000/svg">
<path d="M5.64048 0.0186326C4.28817 0.0186326 4.11861 0.0186326 3.58689 0.0479965C3.17241 0.0563862 2.7642 0.136088 2.37693 0.28081C1.70286 0.538793 1.16906 1.07363 0.911573 1.749C0.767131 2.13703 0.687583 2.54602 0.679209 2.96131C0.656182 3.49406 0.649902 3.66395 0.649902 5.01888C0.649902 6.37382 0.649902 6.54371 0.679209 7.07645C0.695956 7.48545 0.781784 7.88815 0.930413 8.26988C1.1879 8.94525 1.7217 9.48009 2.39577 9.73808C2.78304 9.8828 3.19125 9.9625 3.60573 9.97089C4.13745 9.99396 4.30701 10.0003 5.65932 10.0003C7.01164 10.0003 7.1812 10.0003 7.71291 9.97089C8.1274 9.9625 8.5356 9.8828 8.92288 9.73808C9.59694 9.48009 10.1307 8.94525 10.3882 8.26988C10.5327 7.88186 10.6122 7.47286 10.6206 7.05757C10.6436 6.52483 10.6499 6.35494 10.6499 5.00001C10.6499 3.64507 10.6499 3.47518 10.6206 2.94244C10.6122 2.52715 10.5327 2.11815 10.3882 1.73013C10.1307 1.05476 9.59694 0.519916 8.92288 0.261933C8.5356 0.117211 8.1274 0.0375094 7.71291 0.0291197C7.1812 0.00604812 7.01164 -0.000244141 5.65932 -0.000244141L5.64048 0.0186326Z" fill="black"/>
<path d="M5.64017 2.43701C4.22712 2.43701 3.08203 3.58429 3.08203 5.00004C3.08203 6.4158 4.22712 7.56308 5.64017 7.56308C7.05322 7.56308 8.19831 6.4158 8.19831 5.00004C8.19831 3.58429 7.05322 2.43701 5.64017 2.43701ZM5.64017 6.66329C4.72326 6.66329 3.9801 5.91871 3.9801 5.00004C3.9801 4.08138 4.72326 3.3368 5.64017 3.3368C6.55708 3.3368 7.30024 4.08138 7.30024 5.00004C7.30024 5.91871 6.55708 6.66329 5.64017 6.66329Z" fill="#EFEFEF"/>
<path d="M8.29851 2.93553C8.62895 2.93553 8.89683 2.66711 8.89683 2.33599C8.89683 2.00487 8.62895 1.73645 8.29851 1.73645C7.96807 1.73645 7.7002 2.00487 7.7002 2.33599C7.7002 2.66711 7.96807 2.93553 8.29851 2.93553Z" fill="#EFEFEF"/>
</svg>
