<svg width="11" height="10" viewBox="0 0 11 10" fill="none" xmlns="http://www.w3.org/2000/svg">
<g clip-path="url(#clip0)">
<path d="M5.83105 9.99399C6.59576 9.88534 7.26613 9.08722 7.68797 7.90854C7.07816 7.77197 6.45587 7.69867 5.83105 7.68994V9.99399Z" fill="black"/>
<path d="M7.05255 9.80666C7.09775 9.79357 7.14278 9.7804 7.18746 9.76591C7.22516 9.75378 7.26233 9.74069 7.29951 9.72769C7.34349 9.7125 7.3873 9.69688 7.43093 9.6803C7.46811 9.66617 7.50493 9.65116 7.54184 9.63615C7.58443 9.61826 7.62693 9.60046 7.66899 9.58257C7.70573 9.56642 7.7422 9.54949 7.77868 9.53248C7.81996 9.51302 7.86106 9.49321 7.90181 9.47261C7.93759 9.45437 7.97328 9.43579 8.00906 9.41668C8.04912 9.39521 8.08891 9.37331 8.12844 9.35079C8.16422 9.33055 8.19869 9.31021 8.23351 9.28927C8.27225 9.26545 8.31082 9.24162 8.34913 9.2178C8.38343 9.19598 8.41764 9.17382 8.45141 9.15096C8.48911 9.12556 8.52628 9.09912 8.56328 9.07268C8.59653 9.04886 8.6296 9.02512 8.66206 9.00121C8.69784 8.97363 8.73449 8.9451 8.77036 8.91647C8.80221 8.89108 8.83398 8.86586 8.8653 8.83977C8.901 8.8101 8.9352 8.77938 8.96985 8.74866C9.00022 8.7217 9.03076 8.695 9.06043 8.66733C9.09455 8.63548 9.1278 8.6025 9.16105 8.56977C9.18984 8.54132 9.21899 8.51331 9.24718 8.48417C9.25241 8.47876 9.25739 8.47291 9.2628 8.46732C8.87298 8.266 8.4624 8.10797 8.03821 7.99609C7.8176 8.69962 7.425 9.33718 6.896 9.85082C6.91048 9.84707 6.92497 9.84401 6.93945 9.84026C6.97768 9.82953 7.0152 9.81775 7.05255 9.80666Z" fill="black"/>
<path d="M10.6522 5.18286H8.50928C8.50116 6.01955 8.37978 6.85127 8.14844 7.65542C8.62019 7.78143 9.07546 7.96259 9.5048 8.19515C10.2097 7.34554 10.6132 6.28623 10.6522 5.18286Z" fill="black"/>
<path d="M5.83105 4.8254H8.15205C8.14297 4.01828 8.02455 3.21614 7.80019 2.4408C7.15391 2.58819 6.49383 2.6669 5.83105 2.67563V4.8254Z" fill="black"/>
<path d="M5.83105 0.0141602V2.31821C6.45587 2.3094 7.07816 2.23618 7.68797 2.09961C7.26613 0.920928 6.59576 0.122805 5.83105 0.0141602Z" fill="black"/>
<path d="M5.83105 7.33263C6.49383 7.34144 7.15391 7.42015 7.80019 7.56754C8.02455 6.7922 8.14297 5.98997 8.15205 5.18286H5.83105V7.33263Z" fill="black"/>
<path d="M9.5048 1.81323C9.07546 2.04579 8.62019 2.22695 8.14844 2.35297C8.37978 3.15711 8.50116 3.98883 8.50928 4.82553H10.6522C10.6132 3.72224 10.2096 2.66293 9.5048 1.81323Z" fill="black"/>
<path d="M9.26371 1.54187C9.25847 1.53655 9.2535 1.53079 9.24835 1.52529C9.22008 1.49615 9.19076 1.46805 9.16196 1.43969C9.1288 1.40696 9.09572 1.37389 9.06152 1.34212C9.03193 1.31455 9.0013 1.28846 8.97093 1.26097C8.93629 1.23025 8.90165 1.19927 8.86604 1.1696C8.83515 1.14351 8.80347 1.11855 8.77206 1.09351C8.73628 1.06453 8.69963 1.03574 8.6628 1.00807C8.63051 0.983727 8.59779 0.960166 8.56489 0.936604C8.52754 0.909727 8.49002 0.882937 8.45197 0.857368C8.41855 0.834854 8.3846 0.812863 8.35065 0.791309C8.312 0.766438 8.27342 0.742091 8.23407 0.71853C8.1996 0.697848 8.16478 0.677428 8.12987 0.657619C8.08991 0.634755 8.04985 0.61259 8.00945 0.590949C7.97367 0.573059 7.93798 0.553599 7.9022 0.53571C7.8611 0.514941 7.81965 0.494957 7.77715 0.475323C7.74137 0.458306 7.70507 0.441726 7.66824 0.425582C7.62592 0.40682 7.58316 0.389891 7.54048 0.372001C7.50366 0.356992 7.46701 0.342157 7.42983 0.32802C7.38646 0.31144 7.34248 0.295906 7.2985 0.280722C7.26132 0.267633 7.22415 0.25463 7.18645 0.242413C7.14177 0.227927 7.09709 0.21475 7.05119 0.201486C7.01401 0.190578 6.97666 0.179495 6.93905 0.169547C6.92465 0.16562 6.90999 0.162566 6.89551 0.158813C7.42451 0.672454 7.81703 1.30992 8.03772 2.01354C8.46235 1.90167 8.87355 1.74354 9.26371 1.54187Z" fill="black"/>
<path d="M0.652344 4.82553H2.79522C2.80333 3.98883 2.92472 3.15711 3.15597 2.35297C2.6843 2.22704 2.22904 2.04588 1.7997 1.81323C1.09478 2.66284 0.691264 3.72224 0.652344 4.82553Z" fill="black"/>
<path d="M5.47361 9.99399V7.68994C4.84879 7.69876 4.22651 7.77197 3.6167 7.90854C4.03845 9.08722 4.7089 9.88534 5.47361 9.99399Z" fill="black"/>
<path d="M5.47381 5.18286H3.15283C3.16191 5.98997 3.28024 6.7922 3.50468 7.56754C4.15097 7.42007 4.81095 7.34135 5.47381 7.33263V5.18286Z" fill="black"/>
<path d="M5.47361 0.0141602C4.7089 0.122805 4.03845 0.920928 3.6167 2.09961C4.22651 2.23627 4.84879 2.30949 5.47361 2.31821V0.0141602Z" fill="black"/>
<path d="M5.47381 2.67563C4.81104 2.6669 4.15097 2.58819 3.50468 2.4408C3.28024 3.21614 3.16191 4.01828 3.15283 4.8254H5.47381V2.67563Z" fill="black"/>
<path d="M4.40777 0.158691C4.39329 0.162444 4.3788 0.165498 4.36431 0.16925C4.32644 0.179373 4.28909 0.19063 4.25139 0.201538C4.20654 0.214628 4.16203 0.227805 4.11701 0.242117C4.07905 0.254421 4.0417 0.267511 4.00435 0.280513C3.96063 0.295959 3.91682 0.311318 3.87354 0.327723C3.83619 0.342035 3.79936 0.35687 3.76236 0.372054C3.71986 0.389943 3.67728 0.407832 3.6353 0.425634C3.59848 0.441778 3.56209 0.458708 3.52561 0.475724C3.48434 0.495184 3.44324 0.514993 3.40248 0.535588C3.3667 0.553826 3.33093 0.572501 3.29523 0.591525C3.25518 0.612992 3.21547 0.634983 3.17603 0.657497C3.14025 0.67748 3.10508 0.697988 3.07062 0.718931C3.03178 0.742318 2.99339 0.766491 2.95516 0.790401C2.92078 0.812392 2.88666 0.834557 2.85289 0.85742C2.81519 0.882815 2.77802 0.909256 2.74102 0.935697C2.70777 0.95952 2.6747 0.983256 2.64215 1.00725C2.60558 1.03474 2.57068 1.06337 2.53385 1.0919C2.50209 1.11729 2.47006 1.14251 2.43899 1.16878C2.40322 1.19828 2.36927 1.22882 2.3348 1.25936C2.30426 1.28659 2.27345 1.31303 2.24361 1.34122C2.20966 1.37289 2.17659 1.40579 2.14343 1.43843C2.11463 1.46688 2.08531 1.49498 2.05704 1.52421C2.05189 1.52962 2.04691 1.53556 2.0415 1.54105C2.43123 1.74246 2.84189 1.9005 3.26609 2.01237C3.48669 1.30919 3.87903 0.67207 4.40777 0.158691Z" fill="black"/>
<path d="M2.14275 8.5685C2.176 8.60122 2.20907 8.6343 2.24319 8.66615C2.27286 8.69364 2.3034 8.71973 2.33386 8.74722C2.3685 8.77802 2.40315 8.80891 2.43875 8.83858C2.46964 8.8645 2.50114 8.88954 2.53273 8.91468C2.56851 8.94365 2.6042 8.97245 2.64208 9.00028C2.67428 9.02446 2.707 9.04784 2.73973 9.07184C2.77708 9.09863 2.81477 9.12542 2.85282 9.15116C2.88624 9.17368 2.92019 9.19567 2.95414 9.21731C2.99279 9.24209 3.03137 9.26644 3.07072 9.29C3.10519 9.31077 3.14001 9.3311 3.17492 9.351C3.21488 9.37386 3.25494 9.39603 3.29534 9.41758C3.33103 9.43547 3.36681 9.45493 3.40259 9.47282C3.44369 9.49359 3.48514 9.51357 3.52764 9.5333C3.56342 9.55014 3.59972 9.56672 3.63655 9.58295C3.67887 9.60171 3.72154 9.61864 3.7643 9.63653C3.80113 9.65154 3.83778 9.66637 3.87495 9.68051C3.91833 9.69718 3.96231 9.71271 4.00629 9.7279C4.04346 9.7409 4.08064 9.75399 4.11834 9.76612C4.16302 9.7806 4.2077 9.79387 4.2536 9.80705C4.29077 9.81795 4.32812 9.82904 4.36564 9.83907C4.38013 9.843 4.39479 9.84605 4.40928 9.8498C3.88028 9.33608 3.48776 8.69861 3.26707 7.995C2.84287 8.10696 2.43221 8.26499 2.04248 8.46649C2.04772 8.47181 2.05269 8.47757 2.05793 8.48307C2.08472 8.51204 2.1136 8.54014 2.14275 8.5685Z" fill="black"/>
<path d="M1.7997 8.19515C2.22904 7.96259 2.6843 7.78143 3.15597 7.65542C2.92472 6.85127 2.80333 6.01955 2.79522 5.18286H0.652344C0.691351 6.28615 1.09478 7.34545 1.7997 8.19515Z" fill="black"/>
</g>
<defs>
<clipPath id="clip0">
<rect width="10" height="10" fill="white" transform="translate(0.652344)"/>
</clipPath>
</defs>
</svg>
