<svg width="11" height="10" viewBox="0 0 11 10" fill="none" xmlns="http://www.w3.org/2000/svg">
<path d="M10.667 1.89938C10.2951 2.0625 9.89887 2.17062 9.48574 2.22312C9.91074 1.96938 10.2351 1.57062 10.3876 1.09C9.99137 1.32625 9.55387 1.49313 9.08762 1.58625C8.71137 1.18563 8.17512 0.9375 7.59012 0.9375C6.45512 0.9375 5.54137 1.85875 5.54137 2.98813C5.54137 3.15062 5.55512 3.30687 5.58887 3.45562C3.88449 3.3725 2.37637 2.55562 1.36324 1.31125C1.18637 1.61813 1.08262 1.96938 1.08262 2.3475C1.08262 3.0575 1.44824 3.68687 1.99324 4.05125C1.66387 4.045 1.34074 3.94937 1.06699 3.79875C1.06699 3.805 1.06699 3.81312 1.06699 3.82125C1.06699 4.8175 1.77762 5.645 2.70949 5.83562C2.54262 5.88125 2.36074 5.90312 2.17199 5.90312C2.04074 5.90312 1.90824 5.89563 1.78387 5.86812C2.04949 6.68 2.80324 7.27688 3.69949 7.29625C3.00199 7.84188 2.11637 8.17062 1.15762 8.17062C0.989492 8.17062 0.828242 8.16313 0.666992 8.1425C1.57512 8.72813 2.65137 9.0625 3.81199 9.0625C7.58449 9.0625 9.64699 5.9375 9.64699 3.22875C9.64699 3.13812 9.64387 3.05063 9.63949 2.96375C10.0464 2.675 10.3882 2.31438 10.667 1.89938Z" fill="black"/>
</svg>
